<svg width="770" height="357" viewBox="0 0 770 357" fill="none" xmlns="http://www.w3.org/2000/svg">
<g opacity="0.5">
<rect x="680" y="257" width="1.47541" height="1.47783" fill="#404852"/>
<rect x="689.836" y="257" width="1.47541" height="1.47783" fill="#404852"/>
<rect x="699.672" y="257" width="1.47541" height="1.47783" fill="#404852"/>
<rect x="709.508" y="257" width="1.47541" height="1.47783" fill="#404852"/>
<rect x="719.344" y="257" width="1.47541" height="1.47783" fill="#404852"/>
<rect x="729.18" y="257" width="1.47541" height="1.47783" fill="#404852"/>
<rect x="739.016" y="257" width="1.47541" height="1.47783" fill="#404852"/>
<rect x="748.852" y="257" width="1.47541" height="1.47783" fill="#404852"/>
<rect x="758.689" y="257" width="1.47541" height="1.47783" fill="#404852"/>
<rect x="768.525" y="257" width="1.47541" height="1.47783" fill="#404852"/>
<rect x="680" y="266.852" width="1.47541" height="1.47783" fill="#404852"/>
<rect x="689.836" y="266.852" width="1.47541" height="1.47783" fill="#404852"/>
<rect x="699.672" y="266.852" width="1.47541" height="1.47783" fill="#404852"/>
<rect x="709.508" y="266.852" width="1.47541" height="1.47783" fill="#404852"/>
<rect x="719.344" y="266.852" width="1.47541" height="1.47783" fill="#404852"/>
<rect x="729.18" y="266.852" width="1.47541" height="1.47783" fill="#404852"/>
<rect x="739.016" y="266.852" width="1.47541" height="1.47783" fill="#404852"/>
<rect x="748.852" y="266.852" width="1.47541" height="1.47783" fill="#404852"/>
<rect x="758.689" y="266.852" width="1.47541" height="1.47783" fill="#404852"/>
<rect x="768.525" y="266.852" width="1.47541" height="1.47783" fill="#404852"/>
<rect x="680" y="276.704" width="1.47541" height="1.47783" fill="#404852"/>
<rect x="689.836" y="276.704" width="1.47541" height="1.47783" fill="#404852"/>
<rect x="699.672" y="276.704" width="1.47541" height="1.47783" fill="#404852"/>
<rect x="709.508" y="276.704" width="1.47541" height="1.47783" fill="#404852"/>
<rect x="719.344" y="276.704" width="1.47541" height="1.47783" fill="#404852"/>
<rect x="729.18" y="276.704" width="1.47541" height="1.47783" fill="#404852"/>
<rect x="739.016" y="276.704" width="1.47541" height="1.47783" fill="#404852"/>
<rect x="748.852" y="276.704" width="1.47541" height="1.47783" fill="#404852"/>
<rect x="758.689" y="276.704" width="1.47541" height="1.47783" fill="#404852"/>
<rect x="768.525" y="276.704" width="1.47541" height="1.47783" fill="#404852"/>
<rect x="680" y="286.557" width="1.47541" height="1.47783" fill="#404852"/>
<rect x="689.836" y="286.557" width="1.47541" height="1.47783" fill="#404852"/>
<rect x="699.672" y="286.557" width="1.47541" height="1.47783" fill="#404852"/>
<rect x="709.508" y="286.557" width="1.47541" height="1.47783" fill="#404852"/>
<rect x="719.344" y="286.557" width="1.47541" height="1.47783" fill="#404852"/>
<rect x="729.18" y="286.557" width="1.47541" height="1.47783" fill="#404852"/>
<rect x="739.016" y="286.557" width="1.47541" height="1.47783" fill="#404852"/>
<rect x="748.852" y="286.557" width="1.47541" height="1.47783" fill="#404852"/>
<rect x="758.689" y="286.557" width="1.47541" height="1.47783" fill="#404852"/>
<rect x="768.525" y="286.557" width="1.47541" height="1.47783" fill="#404852"/>
<rect x="680" y="296.409" width="1.47541" height="1.47783" fill="#404852"/>
<rect x="689.836" y="296.409" width="1.47541" height="1.47783" fill="#404852"/>
<rect x="699.672" y="296.409" width="1.47541" height="1.47783" fill="#404852"/>
<rect x="709.508" y="296.409" width="1.47541" height="1.47783" fill="#404852"/>
<rect x="719.344" y="296.409" width="1.47541" height="1.47783" fill="#404852"/>
<rect x="729.18" y="296.409" width="1.47541" height="1.47783" fill="#404852"/>
<rect x="739.016" y="296.409" width="1.47541" height="1.47783" fill="#404852"/>
<rect x="748.852" y="296.409" width="1.47541" height="1.47783" fill="#404852"/>
<rect x="758.689" y="296.409" width="1.47541" height="1.47783" fill="#404852"/>
<rect x="768.525" y="296.409" width="1.47541" height="1.47783" fill="#404852"/>
<rect x="680" y="306.261" width="1.47541" height="1.47783" fill="#404852"/>
<rect x="689.836" y="306.261" width="1.47541" height="1.47783" fill="#404852"/>
<rect x="699.672" y="306.261" width="1.47541" height="1.47783" fill="#404852"/>
<rect x="709.508" y="306.261" width="1.47541" height="1.47783" fill="#404852"/>
<rect x="719.344" y="306.261" width="1.47541" height="1.47783" fill="#404852"/>
<rect x="729.18" y="306.261" width="1.47541" height="1.47783" fill="#404852"/>
<rect x="739.016" y="306.261" width="1.47541" height="1.47783" fill="#404852"/>
<rect x="748.852" y="306.261" width="1.47541" height="1.47783" fill="#404852"/>
<rect x="758.689" y="306.261" width="1.47541" height="1.47783" fill="#404852"/>
<rect x="768.525" y="306.261" width="1.47541" height="1.47783" fill="#404852"/>
<rect x="680" y="316.113" width="1.47541" height="1.47783" fill="#404852"/>
<rect x="689.836" y="316.113" width="1.47541" height="1.47783" fill="#404852"/>
<rect x="699.672" y="316.113" width="1.47541" height="1.47783" fill="#404852"/>
<rect x="709.508" y="316.113" width="1.47541" height="1.47783" fill="#404852"/>
<rect x="719.344" y="316.113" width="1.47541" height="1.47783" fill="#404852"/>
<rect x="729.18" y="316.113" width="1.47541" height="1.47783" fill="#404852"/>
<rect x="739.016" y="316.113" width="1.47541" height="1.47783" fill="#404852"/>
<rect x="748.852" y="316.113" width="1.47541" height="1.47783" fill="#404852"/>
<rect x="758.689" y="316.113" width="1.47541" height="1.47783" fill="#404852"/>
<rect x="768.525" y="316.113" width="1.47541" height="1.47783" fill="#404852"/>
<rect x="680" y="325.966" width="1.47541" height="1.47783" fill="#404852"/>
<rect x="689.836" y="325.966" width="1.47541" height="1.47783" fill="#404852"/>
<rect x="699.672" y="325.966" width="1.47541" height="1.47783" fill="#404852"/>
<rect x="709.508" y="325.966" width="1.47541" height="1.47783" fill="#404852"/>
<rect x="719.344" y="325.966" width="1.47541" height="1.47783" fill="#404852"/>
<rect x="729.18" y="325.966" width="1.47541" height="1.47783" fill="#404852"/>
<rect x="739.016" y="325.966" width="1.47541" height="1.47783" fill="#404852"/>
<rect x="748.852" y="325.966" width="1.47541" height="1.47783" fill="#404852"/>
<rect x="758.689" y="325.966" width="1.47541" height="1.47783" fill="#404852"/>
<rect x="768.525" y="325.966" width="1.47541" height="1.47783" fill="#404852"/>
<rect x="680" y="335.818" width="1.47541" height="1.47783" fill="#404852"/>
<rect x="689.836" y="335.818" width="1.47541" height="1.47783" fill="#404852"/>
<rect x="699.672" y="335.818" width="1.47541" height="1.47783" fill="#404852"/>
<rect x="709.508" y="335.818" width="1.47541" height="1.47783" fill="#404852"/>
<rect x="719.344" y="335.818" width="1.47541" height="1.47783" fill="#404852"/>
<rect x="729.18" y="335.818" width="1.47541" height="1.47783" fill="#404852"/>
<rect x="739.016" y="335.818" width="1.47541" height="1.47783" fill="#404852"/>
<rect x="748.852" y="335.818" width="1.47541" height="1.47783" fill="#404852"/>
<rect x="758.689" y="335.818" width="1.47541" height="1.47783" fill="#404852"/>
<rect x="768.525" y="335.818" width="1.47541" height="1.47783" fill="#404852"/>
<rect x="680" y="345.67" width="1.47541" height="1.47783" fill="#404852"/>
<rect x="689.836" y="345.67" width="1.47541" height="1.47783" fill="#404852"/>
<rect x="699.672" y="345.67" width="1.47541" height="1.47783" fill="#404852"/>
<rect x="709.508" y="345.67" width="1.47541" height="1.47783" fill="#404852"/>
<rect x="719.344" y="345.67" width="1.47541" height="1.47783" fill="#404852"/>
<rect x="729.18" y="345.67" width="1.47541" height="1.47783" fill="#404852"/>
<rect x="739.016" y="345.67" width="1.47541" height="1.47783" fill="#404852"/>
<rect x="748.852" y="345.67" width="1.47541" height="1.47783" fill="#404852"/>
<rect x="758.689" y="345.67" width="1.47541" height="1.47783" fill="#404852"/>
<rect x="768.525" y="345.67" width="1.47541" height="1.47783" fill="#404852"/>
<rect x="680" y="355.522" width="1.47541" height="1.47783" fill="#404852"/>
<rect x="689.836" y="355.522" width="1.47541" height="1.47783" fill="#404852"/>
<rect x="699.672" y="355.522" width="1.47541" height="1.47783" fill="#404852"/>
<rect x="709.508" y="355.522" width="1.47541" height="1.47783" fill="#404852"/>
<rect x="719.344" y="355.522" width="1.47541" height="1.47783" fill="#404852"/>
<rect x="729.18" y="355.522" width="1.47541" height="1.47783" fill="#404852"/>
<rect x="739.016" y="355.522" width="1.47541" height="1.47783" fill="#404852"/>
<rect x="748.852" y="355.522" width="1.47541" height="1.47783" fill="#404852"/>
<rect x="758.689" y="355.522" width="1.47541" height="1.47783" fill="#404852"/>
<rect x="768.525" y="355.522" width="1.47541" height="1.47783" fill="#404852"/>
<rect width="73" height="116" fill="#FCED65"/>
</g>
</svg>
