<svg width="93" height="20" viewBox="0 0 93 20" fill="none" xmlns="http://www.w3.org/2000/svg">
<g clip-path="url(#clip0_1_559)">
<path d="M32.8809 11.1609L32.3376 12.6967H32.2924C32.2018 12.3504 32.0358 11.8234 31.7642 11.191L28.8519 3.88836H26V15.5274H27.8862V8.34523C27.8862 7.89352 27.8862 7.38159 27.8711 6.74919C27.856 6.433 27.8258 6.19208 27.8108 6.0114H27.856C27.9466 6.46311 28.0522 6.79436 28.1276 7.00516L31.6284 15.4973H32.9563L36.4269 6.92988C36.5024 6.73414 36.5778 6.34265 36.6533 6.0114H36.6985C36.6533 6.86965 36.6231 7.63756 36.608 8.10432V15.4823H38.6149V3.85825H35.8686L32.8809 11.1609ZM40.5162 7.14067H42.4778V15.4823H40.5162V7.14067ZM41.5121 3.61734C41.1801 3.61734 40.9085 3.73779 40.6822 3.94859C40.4558 4.15939 40.3351 4.43041 40.3351 4.76167C40.3351 5.07787 40.4558 5.34889 40.6822 5.55969C40.9085 5.77049 41.1801 5.87589 41.5121 5.87589C41.8441 5.87589 42.1308 5.75543 42.342 5.55969C42.5684 5.34889 42.6891 5.07787 42.6891 4.76167C42.6891 4.44547 42.5684 4.17445 42.342 3.94859C42.1459 3.73779 41.8592 3.61734 41.5121 3.61734ZM49.4341 7.06539C49.072 6.9901 48.6948 6.94493 48.3326 6.94493C47.4423 6.94493 46.6275 7.14067 45.9484 7.53216C45.2694 7.92364 44.7262 8.46569 44.3791 9.14326C44.017 9.83588 43.8359 10.6339 43.8359 11.5524C43.8359 12.3504 44.017 13.0581 44.364 13.7055C44.7111 14.3379 45.194 14.8499 45.8428 15.1962C46.4615 15.5425 47.1858 15.7232 48.0006 15.7232C48.9362 15.7232 49.7359 15.5274 50.3697 15.1661L50.3848 15.151V13.3442L50.3093 13.4044C50.0226 13.6152 49.6907 13.7959 49.3587 13.9013C49.0116 14.0217 48.6948 14.082 48.4231 14.082C47.6385 14.082 47.0198 13.8561 46.5822 13.3592C46.1295 12.8774 45.9032 12.2149 45.9032 11.3867C45.9032 10.5285 46.1295 9.85093 46.5973 9.35405C47.0651 8.85717 47.6837 8.6012 48.4382 8.6012C49.072 8.6012 49.7208 8.812 50.3093 9.2336L50.3848 9.29383V7.38159L50.3697 7.36653C50.1132 7.26113 49.8265 7.14067 49.4341 7.06539ZM55.9076 7.00516C55.4247 7.00516 54.972 7.15573 54.5797 7.47193C54.2477 7.74295 54.0214 8.13444 53.8252 8.6012H53.8101V7.14067H51.8485V15.4823H53.8101V11.2211C53.8101 10.4984 53.961 9.89611 54.293 9.45945C54.625 9.00774 55.0475 8.78189 55.5605 8.78189C55.7416 8.78189 55.9227 8.82706 56.149 8.85717C56.3603 8.9174 56.5112 8.97763 56.6168 9.05291L56.6922 9.11314V7.15573L56.647 7.14067C56.5112 7.05033 56.2395 7.00516 55.9076 7.00516ZM61.2493 6.95999C59.8761 6.95999 58.7746 7.36653 58.005 8.16455C57.2204 8.96257 56.8431 10.0617 56.8431 11.447C56.8431 12.7419 57.2355 13.7959 57.9899 14.5638C58.7444 15.3166 59.7705 15.7081 61.0531 15.7081C62.3961 15.7081 63.4675 15.3016 64.237 14.4885C65.0217 13.6754 65.3989 12.5913 65.3989 11.2512C65.3989 9.92622 65.0368 8.87223 64.2974 8.10432C63.5882 7.33642 62.547 6.95999 61.2493 6.95999ZM62.8186 13.3743C62.4565 13.841 61.8831 14.0669 61.1739 14.0669C60.4646 14.0669 59.8912 13.841 59.4838 13.3442C59.0764 12.8774 58.8802 12.1998 58.8802 11.3416C58.8802 10.4532 59.0915 9.77565 59.4838 9.29383C59.8912 8.812 60.4496 8.57109 61.1588 8.57109C61.8529 8.57109 62.3961 8.79694 62.7884 9.26371C63.1808 9.73048 63.392 10.408 63.392 11.2964C63.3618 12.1998 63.1959 12.9075 62.8186 13.3743ZM69.7749 10.6038C69.1562 10.3478 68.7639 10.1521 68.5828 9.98645C68.4319 9.83588 68.3565 9.62508 68.3565 9.35405C68.3565 9.1282 68.447 8.90234 68.6734 8.75177C68.8997 8.6012 69.1562 8.52592 69.5335 8.52592C69.8655 8.52592 70.2125 8.58615 70.5445 8.67649C70.8765 8.76683 71.1783 8.90234 71.4197 9.08303L71.4951 9.14326V7.3063L71.4499 7.29124C71.2235 7.2009 70.9217 7.11056 70.5596 7.03528C70.1974 6.97505 69.8655 6.94493 69.5938 6.94493C68.6583 6.94493 67.8887 7.17079 67.2851 7.66767C66.6816 8.13444 66.3948 8.76683 66.3948 9.50462C66.3948 9.89611 66.4552 10.2424 66.591 10.5285C66.7268 10.8146 66.923 11.0856 67.1946 11.3115C67.4662 11.5223 67.8585 11.7632 68.4018 11.989C68.8545 12.1848 69.2015 12.3353 69.4128 12.4558C69.624 12.5763 69.7598 12.7118 69.8655 12.8172C69.9409 12.9376 69.9862 13.0882 69.9862 13.2839C69.9862 13.841 69.5637 14.1121 68.7036 14.1121C68.3716 14.1121 68.0245 14.0518 67.6171 13.9163C67.2097 13.7808 66.8324 13.5851 66.5156 13.3592L66.4401 13.299V15.2112L66.4854 15.2263C66.7721 15.3618 67.1191 15.4521 67.5417 15.5575C67.9642 15.6328 68.3414 15.6931 68.6734 15.6931C69.6844 15.6931 70.5143 15.4672 71.1028 14.9703C71.7064 14.4885 72.0233 13.8712 72.0233 13.0731C72.0233 12.516 71.8724 12.0191 71.5404 11.6427C71.1028 11.2814 70.5596 10.9049 69.7749 10.6038ZM77.199 6.95999C75.8258 6.95999 74.7243 7.36653 73.9547 8.16455C73.1852 8.96257 72.7928 10.0617 72.7928 11.447C72.7928 12.7419 73.1852 13.7959 73.9396 14.5638C74.6941 15.3166 75.7202 15.7081 77.0028 15.7081C78.3458 15.7081 79.4172 15.3016 80.1867 14.4885C80.9714 13.6754 81.3486 12.5913 81.3486 11.2512C81.3486 9.92622 80.9865 8.87223 80.2471 8.10432C79.5379 7.33642 78.4967 6.95999 77.199 6.95999ZM78.7532 13.3743C78.3911 13.841 77.8177 14.0669 77.1085 14.0669C76.3842 14.0669 75.8258 13.841 75.4184 13.3442C75.011 12.8774 74.8148 12.1998 74.8148 11.3416C74.8148 10.4532 75.0261 9.77565 75.4184 9.29383C75.8258 8.812 76.3842 8.57109 77.0934 8.57109C77.7724 8.57109 78.3307 8.79694 78.723 9.26371C79.1154 9.73048 79.3266 10.408 79.3266 11.2964C79.3266 12.1998 79.1305 12.9075 78.7532 13.3743ZM91.8359 8.75177V7.14067H89.8592V4.67133L89.7988 4.68638L87.9277 5.24349L87.8824 5.25855V7.14067H84.9249V6.08668C84.9249 5.60486 85.0456 5.22844 85.2568 4.98752C85.4681 4.74661 85.785 4.62616 86.1773 4.62616C86.4489 4.62616 86.7356 4.68638 87.0525 4.8219L87.128 4.86707V3.16563L87.0827 3.15057C86.8111 3.06023 86.4489 3 85.9811 3C85.3926 3 84.8796 3.13551 84.4118 3.36137C83.9441 3.61734 83.597 3.96365 83.3405 4.43041C83.0839 4.88212 82.9481 5.39406 82.9481 5.98129V7.14067H81.575V8.73672H82.9481V15.4823H84.9249V8.75177H87.8824V13.043C87.8824 14.8047 88.7124 15.6931 90.3722 15.6931C90.6438 15.6931 90.9305 15.6479 91.2021 15.6027C91.4889 15.5425 91.7001 15.4672 91.8208 15.407L91.8359 15.3919V13.7808L91.7605 13.841C91.6397 13.9163 91.5341 13.9766 91.353 14.0217C91.2021 14.0669 91.0663 14.082 90.9607 14.082C90.5684 14.082 90.2968 13.9916 90.1006 13.7658C89.9195 13.555 89.829 13.2086 89.829 12.6967V8.75177H91.8359Z" fill="#737373"/>
<path d="M0.929413 0.146973H10.1793V9.37691H0.929413V0.146973Z" fill="#F25022"/>
<path d="M11.145 0.146973H20.3949V9.37691H11.145V0.146973Z" fill="#7FBA00"/>
<path d="M0.929413 10.3406H10.1793V19.5705H0.929413V10.3406Z" fill="#00A4EF"/>
<path d="M11.145 10.3406H20.3949V19.5705H11.145V10.3406Z" fill="#FFB900"/>
</g>
<defs>
<clipPath id="clip0_1_559">
<rect width="91.1412" height="19.4235" fill="white" transform="translate(0.929413 0.146973)"/>
</clipPath>
</defs>
</svg>
